<svg width="19" height="20" viewBox="0 0 19 20" fill="none" xmlns="http://www.w3.org/2000/svg">
<rect width="19" height="20" fill="#B5E7E7"/>
<path d="M3.33555 8.30289C2.5534 8.66155 2.4076 8.94312 2.51165 9.53874C2.60253 9.78259 2.81213 9.85939 3.33555 9.9507C3.33555 9.9507 3.33555 10.2383 3.7475 10.7746C4.15945 11.3108 4.15945 12.4224 4.15945 12.4224C4.19341 12.9624 4.48836 12.8557 4.98335 13.2463C5.47834 13.637 5.66934 14.3458 5.80725 14.8941C5.94517 15.4424 6.26061 15.6929 7.04311 15.718H10.7507L12.8104 16.5419L16.518 12.8344L13.6343 11.1865L10.7507 7.89094L9.92676 5.41923C9.90645 5.03408 9.912 4.23623 9.92676 3.77143C9.94153 3.30663 9.17345 3.40391 8.69091 3.77143C8.41572 4.09707 8.33958 4.28057 8.27896 4.59533V7.06704V7.89094L3.33555 8.30289Z" fill="#005C9B" stroke="#005C9B"/>
</svg>
